<?xml version="1.0"?>
<svg width="300" height="200" xmlns="http://www.w3.org/2000/svg" xmlns:xlink="http://www.w3.org/1999/xlink" version="1.1">
 <desc>Logo of University of Kent</desc>
 <g fill="#155196">
   <path d="m63.93641,74.79596c-7.78402,0 -9.43646,-4.25892 -9.43646,-8.81153l0,-16.33844l4.00284,0l0,16.04527c0,3.30489 1.10093,5.80074 5.68964,5.80074c4.03917,0 5.87515,-1.69056 5.87515,-6.31557l0,-15.53043l3.92815,0l0,15.23714c0,6.60886 -3.56167,9.91283 -10.05933,9.91283"/>
   <path d="m90.47182,74.42951l0,-11.71285c0,-2.27628 -0.62373,-3.6334 -2.75274,-3.6334c-2.71742,0 -4.77299,2.8993 -4.77299,6.57139l0,8.77486l-3.89251,0l0,-15.20071c-0.88051,-0.14555 -1.6535,-0.29266 -2.71847,-0.36639l0,-2.42379c2.05582,-0.21881 4.22366,-0.36714 6.46398,-0.25605c0,0.95483 -0.11063,2.53286 -0.2936,3.59825l0.0729,0c1.06468,-2.35145 3.26809,-3.96602 6.31498,-3.96602c4.1502,0 5.47091,2.64267 5.47091,5.83728l0,12.77744"/>
   <path d="m100.86014,52.87721c-1.31825,0 -2.42184,-1.03406 -2.42184,-2.38597c0,-1.31797 1.10358,-2.38667 2.42184,-2.38667c1.3523,0 2.45658,1.0687 2.45658,2.38667c0,1.31728 -1.10428,2.38597 -2.45658,2.38597zm-1.947,21.5523l0,-15.20071c-0.88116,-0.14555 -1.65416,-0.29266 -2.71809,-0.36639l0,-2.42379c2.05507,-0.21887 4.22327,-0.36714 6.61095,-0.25605l0,18.24694"/>
   <path d="m115.91052,74.42951l-4.00189,0l-6.82844,-18.24694l4.33277,0l3.41364,9.65493c0.44031,1.24888 0.84294,2.53361 1.17373,3.74461l0.03825,0c0.29388,-1.13791 0.65893,-2.42333 1.06402,-3.59761l3.48777,-9.80192l4.22216,0"/>
   <path d="m131.067,58.71542c-2.2036,0 -3.74588,1.61462 -4.07554,4.1842l7.74653,0c0.07146,-2.60548 -1.35858,-4.1842 -3.67099,-4.1842zm7.48833,6.90192l-11.63741,0c-0.11092,4.14893 1.76234,6.02227 5.39651,6.02227c1.76234,0 3.59747,-0.36835 5.24945,-1.10258l0.51479,3.0844c-1.9101,0.77146 -4.18512,1.17451 -6.46292,1.17451c-5.61639,0 -8.73718,-2.93741 -8.73718,-9.36273c0,-5.50686 3.0111,-9.61843 8.33551,-9.61843c5.21262,0 7.45226,3.561 7.45226,7.89342c0,0.51402 -0.03615,1.13785 -0.11101,1.90914"/>
   <path d="m151.74733,59.70697c-3.81807,-0.73549 -5.58109,1.83466 -5.58109,7.30556l0,7.41698l-3.88953,0l0,-15.20071c-0.88251,-0.14555 -1.6554,-0.29266 -2.71971,-0.36639l0,-2.42385c2.05508,-0.21881 4.22328,-0.36714 6.46216,-0.256c0,1.0274 -0.14566,2.64325 -0.36629,4.03778l0.0742,0c0.80763,-2.46051 2.60736,-4.73673 6.20482,-4.36959"/>
   <path d="m157.73152,74.79596c-1.39529,0 -2.90086,-0.18291 -4.04013,-0.51478l0.29492,-3.34115c1.13786,0.44226 2.60793,0.69958 4.00189,0.69958c2.05576,0 3.48843,-0.91833 3.48843,-2.38811c0,-3.74454 -8.00444,-1.46763 -8.00444,-7.78233c0,-3.19595 2.42345,-5.65444 7.45293,-5.65444c1.10179,0 2.38672,0.147 3.45105,0.36783l-0.21999,3.15657c-1.06497,-0.33042 -2.27702,-0.51338 -3.45103,-0.51338c-2.16676,0 -3.19359,0.88121 -3.19359,2.27564c0,3.59819 8.07599,1.61526 8.07599,7.74712c0,3.45155 -3.01112,5.94745 -7.85603,5.94745"/>
   <path d="m171.16788,52.87721c-1.31825,0 -2.42213,-1.03406 -2.42213,-2.38597c0,-1.31797 1.10388,-2.38667 2.42213,-2.38667c1.35371,0 2.4576,1.0687 2.4576,2.38667c0,1.31728 -1.10388,2.38597 -2.4576,2.38597zm-1.94539,21.5523l0,-15.20071c-0.88193,-0.14555 -1.65472,-0.29266 -2.72047,-0.36639l0,-2.42379c2.05652,-0.21887 4.22603,-0.36714 6.61133,-0.25605l0,18.24694"/>
   <path d="m184.01808,74.75935c-3.89163,0 -5.06694,-1.50493 -5.06694,-5.58089l0,-9.94966l-3.48709,0l0,-3.04624l3.48709,0l0,-5.80172l3.92976,-1.06534l0,6.86706l4.77336,0l0,3.04624l-4.77336,0l0,8.73861c0,2.71593 0.55086,3.45154 2.38672,3.45154c0.80688,0 1.57701,-0.1105 2.23889,-0.25739l0.33098,3.15761c-1.10246,0.25733 -2.608,0.44018 -3.81941,0.44018"/>
   <path d="m199.6996,75.71372c-2.27504,6.09641 -4.69859,7.96772 -8.84889,7.96772c-0.69727,0 -1.68816,-0.1097 -2.31186,-0.22072l0.43991,-3.41367c0.6244,0.18423 1.50415,0.29259 2.23822,0.29259c1.72696,0 3.34419,-0.84328 4.55493,-4.11127l0.66043,-1.79887l-6.82918,-18.24694l4.40573,0l2.97443,8.33359c0.58699,1.61584 1.02823,3.22919 1.43068,4.77264l0.03671,0c0.36772,-1.46769 1.13985,-3.85558 1.80116,-5.69041l2.60524,-7.41583l4.22252,0"/>
   <path d="m223.96646,59.11911c-2.38539,0 -4.6985,1.83541 -4.6985,6.02082c0,4.11157 1.61584,6.27897 4.66234,6.27897c2.5325,0 4.66246,-1.98455 4.66246,-6.20518c0,-3.89085 -1.50691,-6.09462 -4.6263,-6.09462zm-0.40453,15.67685c-5.06419,0 -8.36949,-2.82708 -8.36949,-9.25112c0,-5.50803 3.56065,-9.7301 9.10423,-9.7301c4.88307,0 8.33345,2.71651 8.33345,9.14165c0,5.6165 -3.67102,9.83957 -9.06819,9.83957"/>
   <path d="m247.01172,50.93008c-0.80687,-0.256 -1.68872,-0.36639 -2.49568,-0.36639c-2.35133,0 -3.41487,1.28542 -3.41487,4.14956l0,1.46931l4.73799,0l0,3.04624l-4.73799,0l0,15.20071l-3.89098,0l0,-15.20071l-3.48851,0l0,-3.04624l3.48851,0l0,-1.39587c0,-4.99302 2.38541,-7.41693 7.12338,-7.41693c1.02824,0 2.01759,0.11109 2.97298,0.32984"/>
   <path d="m191.56561,150.96654l0,-32.7916c0,-6.37354 -2.03325,-10.1774 -8.97624,-10.1774c-8.85562,0 -15.55756,8.12086 -15.55756,18.40112l0,24.56787l-12.68605,0l0,-42.55737c-2.87286,-0.41162 -4.79111,-0.93826 -8.48383,-1.02862l0,-6.78423c6.70119,-0.61677 13.39081,-1.02775 20.68982,-0.7198c0,2.6729 -0.35812,7.09306 -0.9567,10.07355l0.06737,0c3.47011,-6.5788 10.82434,-11.10165 20.75726,-11.10165c13.52434,0 17.83272,7.40158 17.83272,16.34568l0,35.77244"/>
   <path d="m235.05157,151.89191c-12.7126,0 -16.54974,-4.21431 -16.54974,-15.6256l0,-27.85715l-10.91281,0l0,-8.53271l10.91281,0l0,-15.75999l12.83244,-2.98137l0,18.74136l15.591,0l0,8.53271l-15.591,0l0,24.46533c0,7.60681 1.7984,9.66331 7.79549,9.66331c2.63733,0 5.15617,-0.30922 7.3161,-0.72049l1.07866,8.84071c-3.5968,0.71974 -8.51526,1.23387 -12.47295,1.23387"/>
   <path d="m141.33766,140.45544l1.86995,8.61942c0,0 -9.10435,3.13374 -20.51559,3.13374c-27.94236,0.83208 -40.74571,-17.28996 -43.06954,-20.13019c-2.16726,-2.64812 -12.43592,-15.02371 -12.43592,-15.02371l0,33.92274l-12.68358,0l0,-69.38816l12.68358,0l0,32.17517l26.93633,-32.17517l14.67233,0l-29.20367,33.39671c0,0 7.70528,9.48766 10.84033,12.90124c5.0735,5.52452 20.98769,22.91866 50.90579,12.56821"/>
   <path d="m93.62082,125.00482c2.33738,2.54539 7.20078,7.84111 14.7394,11.2131c0.57554,0.25745 1.15609,0.49847 1.74167,0.72383c-2.18385,-3.07584 -3.5468,-7.45435 -3.5468,-13.59576c0,-8.54088 3.53617,-16.36578 13.85913,-16.36578c7.65657,0 12.42802,4.41013 12.18425,11.7081l-0.00075,0.08311c-7.52373,-0.30917 -14.82561,0.34247 -21.73384,0.9601l0,6.78499l34.24281,1.87595c0.24377,-2.15852 0.49571,-6.00315 0.49571,-7.4427c0,-12.13015 -7.30309,-22.11607 -25.26144,-22.11607c-18.88555,0 -26.85213,13.54085 -26.85213,24.51363c0,0.47672 0.00758,0.94376 0.02162,1.40479c0,0.16547 0.04887,0.18256 0.11037,0.2527"/>
 </g>
</svg>